<svg width="52" height="52" viewBox="0 0 52 52" fill="none" xmlns="http://www.w3.org/2000/svg">
<path d="M12.9998 7.79999C10.1317 7.79999 7.7998 10.1319 7.7998 13V39C7.7998 41.8681 10.1317 44.2 12.9998 44.2H20.9786V32.3537H16.6886V26H20.9786V23.2619C20.9786 16.185 24.1798 12.9025 31.1348 12.9025C32.4511 12.9025 34.7261 13.1625 35.6604 13.4225V19.175C35.1729 19.1262 34.3198 19.0937 33.2554 19.0937C29.8429 19.0937 28.5267 20.3856 28.5267 23.7412V26H35.3192L34.1492 32.3537H28.5186V44.2H38.9998C41.8679 44.2 44.1998 41.8681 44.1998 39V13C44.1998 10.1319 41.8679 7.79999 38.9998 7.79999H12.9998Z" fill="#C6A45C"/>
</svg>
