<svg width="52" height="52" viewBox="0 0 52 52" fill="none" xmlns="http://www.w3.org/2000/svg">
<path d="M23.795 22.6006C22.4625 23.4375 21.6906 24.9406 21.7719 26.5088C21.8613 28.085 22.8038 29.4825 24.2175 30.1731C25.6394 30.8556 27.3213 30.7094 28.605 29.7994C29.9375 28.9625 30.7094 27.4594 30.6281 25.8913C30.5388 24.315 29.5963 22.9175 28.1825 22.2269C26.7606 21.5444 25.0788 21.6906 23.795 22.6006ZM35.3569 17.0431C34.9344 16.6206 34.4225 16.2875 33.8619 16.0681C32.3913 15.4913 29.1819 15.5156 27.11 15.54C26.7769 15.54 26.4681 15.5481 26.2 15.5481C25.9319 15.5481 25.615 15.5481 25.2738 15.54C23.2019 15.5156 20.0088 15.4831 18.5381 16.0681C17.9775 16.2875 17.4738 16.6206 17.0431 17.0431C16.6125 17.4656 16.2875 17.9775 16.0681 18.5381C15.4913 20.0088 15.5238 23.2263 15.54 25.2981C15.54 25.6313 15.5481 25.94 15.5481 26.2C15.5481 26.46 15.5481 26.7688 15.54 27.1019C15.5238 29.1738 15.4913 32.3913 16.0681 33.8619C16.2875 34.4225 16.6206 34.9263 17.0431 35.3569C17.4656 35.7875 17.9775 36.1125 18.5381 36.3319C20.0088 36.9088 23.2181 36.8844 25.29 36.86C25.6231 36.86 25.9319 36.8519 26.2 36.8519C26.4681 36.8519 26.785 36.8519 27.1263 36.86C29.1981 36.8844 32.3913 36.9169 33.8619 36.3319C34.4225 36.1125 34.9263 35.7794 35.3569 35.3569C35.7875 34.9344 36.1125 34.4225 36.3319 33.8619C36.9169 32.3994 36.8844 29.1981 36.86 27.1181C36.86 26.7769 36.8519 26.46 36.8519 26.1919C36.8519 25.9237 36.8519 25.615 36.86 25.2656C36.8844 23.1938 36.9169 19.9925 36.3319 18.5219C36.1125 17.9613 35.7794 17.4575 35.3569 17.0269V17.0431ZM29.905 20.6588C31.3756 21.6419 32.3913 23.1694 32.7406 24.9C33.09 26.6306 32.7244 28.4344 31.7413 29.905C31.2538 30.6363 30.6281 31.2538 29.905 31.7413C29.1819 32.2288 28.3613 32.5619 27.5 32.7325C25.7694 33.0738 23.9656 32.7163 22.495 31.7331C21.0244 30.75 20.0088 29.2225 19.6594 27.4919C19.31 25.7613 19.6756 23.9575 20.6506 22.4869C21.6256 21.0162 23.1613 20.0006 24.8919 19.6512C26.6225 19.3019 28.4263 19.6675 29.8969 20.6425H29.905V20.6588ZM32.2775 20.5531C32.0256 20.3825 31.8225 20.1388 31.7006 19.8544C31.5788 19.57 31.5544 19.2613 31.6113 18.9525C31.6681 18.6438 31.8225 18.3756 32.0338 18.1563C32.245 17.9369 32.5294 17.7906 32.83 17.7338C33.1306 17.6769 33.4475 17.7013 33.7319 17.8231C34.0163 17.945 34.26 18.14 34.4306 18.3919C34.6012 18.6438 34.6906 18.9444 34.6906 19.2531C34.6906 19.4563 34.65 19.6594 34.5769 19.8463C34.5038 20.0331 34.3819 20.2038 34.2438 20.35C34.1056 20.4963 33.9269 20.61 33.74 20.6913C33.5531 20.7725 33.35 20.8131 33.1469 20.8131C32.8381 20.8131 32.5375 20.7238 32.2856 20.5531H32.2775ZM44.4 13.2C44.4 10.3319 42.0681 8 39.2 8H13.2C10.3319 8 8 10.3319 8 13.2V39.2C8 42.0681 10.3319 44.4 13.2 44.4H39.2C42.0681 44.4 44.4 42.0681 44.4 39.2V13.2ZM37.0063 37.0063C35.4869 38.5256 33.6425 39.005 31.5625 39.1106C29.4175 39.2325 22.9825 39.2325 20.8375 39.1106C18.7575 39.005 16.9131 38.5256 15.3938 37.0063C13.8744 35.4869 13.395 33.6425 13.2975 31.5625C13.1756 29.4175 13.1756 22.9825 13.2975 20.8375C13.4031 18.7575 13.8744 16.9131 15.3938 15.3938C16.9131 13.8744 18.7656 13.395 20.8375 13.2975C22.9825 13.1756 29.4175 13.1756 31.5625 13.2975C33.6425 13.4031 35.4869 13.8744 37.0063 15.3938C38.5256 16.9131 39.005 18.7575 39.1025 20.8375C39.2244 22.9744 39.2244 29.4013 39.1025 31.5544C38.9969 33.6344 38.5256 35.4788 37.0063 36.9981V37.0063Z" fill="#C6A45C"/>
</svg>
