<svg width="16" height="22" viewBox="0 0 16 22" fill="none" xmlns="http://www.w3.org/2000/svg">
<path d="M0.00327291 9.24494C0.00327291 5.83452 2.81802 3.07214 6.28735 3.07214C9.75669 3.07214 12.5714 5.83452 12.5714 9.24494C12.5714 13.1496 8.63733 17.8299 6.99431 19.6137C6.6081 20.0326 5.96333 20.0326 5.57712 19.6137C3.93409 17.8299 0 13.1496 0 9.24494H0.00327291ZM6.28735 11.4509C7.4427 11.4509 8.38204 10.5116 8.38204 9.35622C8.38204 8.20087 7.4427 7.26153 6.28735 7.26153C5.132 7.26153 4.19266 8.20087 4.19266 9.35622C4.19266 10.5116 5.132 11.4509 6.28735 11.4509Z" fill="#C6A45C"/>
</svg>
