<svg width="17" height="17" viewBox="0 0 17 17" fill="none" xmlns="http://www.w3.org/2000/svg">
<path d="M2.9752 3.39999C2.27129 3.39999 1.7002 3.97109 1.7002 4.67499C1.7002 5.07609 1.88879 5.45328 2.2102 5.69499L7.7352 9.83874C8.18941 10.1787 8.81098 10.1787 9.2652 9.83874L14.7902 5.69499C15.1116 5.45328 15.3002 5.07609 15.3002 4.67499C15.3002 3.97109 14.7291 3.39999 14.0252 3.39999H2.9752ZM1.7002 6.90624V11.9C1.7002 12.8377 2.46254 13.6 3.4002 13.6H13.6002C14.5379 13.6 15.3002 12.8377 15.3002 11.9V6.90624L10.0302 10.8587C9.12441 11.5387 7.87598 11.5387 6.9702 10.8587L1.7002 6.90624Z" fill="#C6A45C"/>
</svg>
