<svg width="17" height="17" viewBox="0 0 17 17" fill="none" xmlns="http://www.w3.org/2000/svg">
<path d="M11.0442 2.36407C11.2514 1.86469 11.7986 1.59641 12.3219 1.73985L12.468 1.77969C14.1839 2.24719 15.6502 3.91 15.2225 5.93407C14.237 10.5825 10.5794 14.2402 5.93095 15.2256C3.90424 15.6559 2.24408 14.187 1.77658 12.4711L1.73674 12.325C1.5933 11.8017 1.86158 11.2545 2.36095 11.0473L4.94548 9.97157C5.38377 9.78829 5.89111 9.91579 6.19392 10.285L7.21923 11.5388C9.08658 10.6117 10.5874 9.06047 11.4506 7.1586L10.2792 6.19969C9.91002 5.89954 9.78517 5.39219 9.9658 4.95125L11.0442 2.36407Z" fill="#C6A45C"/>
</svg>
